<svg width="1007" height="200" viewBox="0 0 1007 200" fill="none" xmlns="http://www.w3.org/2000/svg">
<path d="M67.9882 198.849C66.3544 199.568 64.6948 199.683 62.989 199.687L49.4414 199.714C43.5584 199.726 38.5128 196.04 36.8104 190.437L35.8527 187.287L31.4301 173.361L27.797 161.555L25.4201 153.631C25.0871 152.523 24.5431 151.829 23.7846 150.98C21.5432 148.467 19.434 145.967 17.548 143.156C15.2019 139.66 12.9949 136.255 11.3302 132.376C7.31438 123.016 5.48321 114.14 6.1079 103.902C6.38077 99.4378 7.21999 95.1371 8.41273 90.8449C8.5895 90.2082 8.2497 89.8942 7.84811 89.4926C4.13258 85.7702 1.42273 81.2446 0.40847 76.0137C-0.634967 70.6352 0.356987 65.128 2.96901 60.3742C3.81509 58.833 4.61997 57.4309 5.95345 56.2674C7.96824 54.51 11.0385 54.359 13.2009 55.9825C15.5126 57.721 16.4599 60.9096 15.2654 63.5165C14.5961 64.977 13.7689 66.1766 13.3107 67.7091C12.2141 71.3732 12.5419 73.5218 14.2975 76.762C16.774 72.4235 20.3917 67.589 23.7365 64.088C25.6672 62.0663 27.4932 60.1253 29.6384 58.2856C42.0601 47.6281 57.1574 40.4493 73.0252 36.5588C80.7686 34.6607 93.065 32.9084 100.923 32.9016L105.073 32.8982C111.95 32.893 118.706 33.286 125.454 34.7293L135.738 36.9277C136.776 37.1491 137.729 37.5524 138.798 37.5713C140.239 36.394 141.641 35.1034 143.368 34.3912C143.804 34.211 143.843 33.9364 144.039 33.7271C149.189 30.559 154.628 28.3211 160.557 26.9035C162.433 26.4556 164.221 26.1999 166.147 25.951C169.773 25.4842 173.646 24.978 176.557 27.5437C178.603 29.3457 179.567 32.0006 179.54 34.6864C179.524 36.2601 179.269 37.6331 178.994 39.1691L175.994 55.9155C177.137 56.6895 177.976 57.6712 179.051 58.5138C181.344 60.3107 183.412 62.2053 185.344 64.3917C186.638 65.8556 187.855 67.196 189.072 68.7371C191.802 72.1935 194.234 75.7546 196.091 79.7653C196.566 80.7933 197.119 81.6548 197.671 82.6828L202.389 84.0729L211.55 86.5614C212.346 86.7776 213.017 87.114 213.723 87.4641C217.491 89.3347 220.313 94.0765 220.299 98.2142L220.213 122.224C220.201 125.646 218.156 128.899 215.779 131.136C213.925 132.878 211.699 133.648 209.461 134.656L200.331 138.771C198.406 139.639 196.518 140.406 194.582 141.191C193.472 141.64 192.818 142.281 192.147 143.254C186.796 151.028 181.091 156.149 173.911 162.068C173.109 162.729 172.565 163.553 172.303 164.546L170.111 172.854L166.735 185.429C166.363 186.814 165.907 188.066 165.606 189.457C164.77 193.327 162.46 196.376 159.006 198.348C157.185 199.388 155.084 199.663 152.913 199.664L139.378 199.683C134.272 199.69 129.848 197.133 127.368 192.722L121.485 182.262C121.272 181.883 121.083 181.183 120.469 181.253C114.96 181.89 109.58 182.218 104.014 182.127C98.8331 182.207 93.8733 181.947 88.754 181.264L81.4842 180.294L74.0034 193.992C72.7386 196.308 70.4063 197.773 67.9865 198.841L67.9882 198.849ZM117.893 67.8722L126.101 69.6021C127.727 69.9453 129.663 68.9825 130.747 67.8636C132.335 66.2281 132.91 64.1069 132.269 61.8604C131.753 60.0515 130.289 58.44 128.231 57.8411C125.734 57.1151 123.328 56.5797 120.742 56.0683C114.569 54.8464 103.771 53.8733 97.6627 54.5134L91.1806 55.193C88.0212 55.5243 85.0384 56.0099 81.9373 56.7153C79.0884 57.364 69.9034 59.3273 68.1529 61.1602C65.7469 63.6778 65.3847 67.0158 67.4991 69.5369C68.7588 71.0402 70.7015 71.9309 72.7815 71.7576C74.1012 71.6478 75.1481 71.0128 76.4095 70.6095C89.7717 66.3482 104.042 64.9512 117.891 67.8704L117.893 67.8722ZM162.641 96.45C165.191 96.9099 167.497 96.2887 169.473 94.8145C172.323 92.6881 173.259 89.0773 172.294 85.693C170.949 80.9666 165.917 78.358 161.36 80.1806C158.944 81.1468 157.307 82.8355 156.404 85.2279C154.581 90.0641 157.382 95.5009 162.639 96.45H162.641Z" fill="#FF6B35"/>
<path d="M102.601 13.53C92.8604 10.0393 82.1583 16.6294 80.4232 26.6982C75.7809 27.3521 72.1804 28.4178 67.6977 29.2793C67.152 24.6542 69.4877 18.0933 71.9247 14.2113C75.285 8.85853 80.3717 4.4222 86.2616 2.09163C94.7379 -1.26178 103.859 -0.518673 111.757 3.8593C119.878 8.70408 125.832 17.412 126.319 27.153C122.169 26.3893 118.232 25.8092 114.139 25.4969C113.659 25.4609 113.333 25.2738 113.25 24.7795C112.257 22.001 110.887 19.389 108.711 17.3399C106.945 15.6752 104.88 14.3469 102.601 13.5317V13.53Z" fill="#FF6B35"/>
<path d="M354.364 80.8182C354.061 77.4848 352.712 74.8939 350.318 73.0455C347.955 71.1667 344.576 70.2273 340.182 70.2273C337.273 70.2273 334.848 70.6061 332.909 71.3636C330.97 72.1212 329.515 73.1667 328.545 74.5C327.576 75.803 327.076 77.303 327.045 79C326.985 80.3939 327.258 81.6212 327.864 82.6818C328.5 83.7424 329.409 84.6818 330.591 85.5C331.803 86.2879 333.258 86.9848 334.955 87.5909C336.652 88.197 338.561 88.7273 340.682 89.1818L348.682 91C353.288 92 357.348 93.3333 360.864 95C364.409 96.6667 367.379 98.6515 369.773 100.955C372.197 103.258 374.03 105.909 375.273 108.909C376.515 111.909 377.152 115.273 377.182 119C377.152 124.879 375.667 129.924 372.727 134.136C369.788 138.348 365.561 141.576 360.045 143.818C354.561 146.061 347.939 147.182 340.182 147.182C332.394 147.182 325.606 146.015 319.818 143.682C314.03 141.348 309.53 137.803 306.318 133.045C303.106 128.288 301.455 122.273 301.364 115H322.909C323.091 118 323.894 120.5 325.318 122.5C326.742 124.5 328.697 126.015 331.182 127.045C333.697 128.076 336.606 128.591 339.909 128.591C342.939 128.591 345.515 128.182 347.636 127.364C349.788 126.545 351.439 125.409 352.591 123.955C353.742 122.5 354.333 120.833 354.364 118.955C354.333 117.197 353.788 115.697 352.727 114.455C351.667 113.182 350.03 112.091 347.818 111.182C345.636 110.242 342.848 109.379 339.455 108.591L329.727 106.318C321.667 104.47 315.318 101.485 310.682 97.3636C306.045 93.2121 303.742 87.6061 303.773 80.5455C303.742 74.7879 305.288 69.7424 308.409 65.4091C311.53 61.0758 315.848 57.697 321.364 55.2727C326.879 52.8485 333.167 51.6364 340.227 51.6364C347.439 51.6364 353.697 52.8636 359 55.3182C364.333 57.7424 368.47 61.1515 371.409 65.5455C374.348 69.9394 375.848 75.0303 375.909 80.8182H354.364ZM388.545 172.182V76.1818H410.545V88.1364H411.227C412.136 86.0151 413.424 83.9697 415.091 82C416.788 80.0303 418.939 78.4242 421.545 77.1818C424.182 75.9091 427.333 75.2727 431 75.2727C435.848 75.2727 440.379 76.5455 444.591 79.0909C448.833 81.6364 452.258 85.5606 454.864 90.8636C457.47 96.1667 458.773 102.924 458.773 111.136C458.773 119.045 457.515 125.667 455 131C452.515 136.333 449.152 140.333 444.909 143C440.697 145.667 436.015 147 430.864 147C427.348 147 424.303 146.424 421.727 145.273C419.152 144.121 416.985 142.606 415.227 140.727C413.5 138.848 412.167 136.833 411.227 134.682H410.773V172.182H388.545ZM410.318 111.091C410.318 114.848 410.818 118.121 411.818 120.909C412.848 123.697 414.318 125.864 416.227 127.409C418.167 128.924 420.485 129.682 423.182 129.682C425.909 129.682 428.227 128.924 430.136 127.409C432.045 125.864 433.485 123.697 434.455 120.909C435.455 118.121 435.955 114.848 435.955 111.091C435.955 107.333 435.455 104.076 434.455 101.318C433.485 98.5606 432.045 96.4242 430.136 94.9091C428.258 93.3939 425.939 92.6364 423.182 92.6364C420.455 92.6364 418.136 93.3788 416.227 94.8636C414.318 96.3485 412.848 98.4697 411.818 101.227C410.818 103.985 410.318 107.273 410.318 111.091ZM490.102 147.182C485.648 147.182 481.693 146.439 478.239 144.955C474.814 143.439 472.102 141.167 470.102 138.136C468.133 135.076 467.148 131.242 467.148 126.636C467.148 122.758 467.83 119.485 469.193 116.818C470.557 114.152 472.436 111.985 474.83 110.318C477.223 108.652 479.981 107.394 483.102 106.545C486.223 105.667 489.557 105.076 493.102 104.773C497.072 104.409 500.269 104.03 502.693 103.636C505.117 103.212 506.875 102.621 507.966 101.864C509.087 101.076 509.648 99.9697 509.648 98.5455V98.3182C509.648 95.9848 508.845 94.1818 507.239 92.9091C505.633 91.6364 503.466 91 500.739 91C497.799 91 495.436 91.6364 493.648 92.9091C491.86 94.1818 490.723 95.9394 490.239 98.1818L469.739 97.4545C470.345 93.2121 471.905 89.4242 474.42 86.0909C476.966 82.7273 480.451 80.0909 484.875 78.1818C489.33 76.2424 494.678 75.2727 500.92 75.2727C505.375 75.2727 509.481 75.803 513.239 76.8636C516.996 77.8939 520.269 79.4091 523.057 81.4091C525.845 83.3788 527.996 85.803 529.511 88.6818C531.057 91.5606 531.83 94.8485 531.83 98.5455V146H510.92V136.273H510.375C509.133 138.636 507.542 140.636 505.602 142.273C503.693 143.909 501.436 145.136 498.83 145.955C496.254 146.773 493.345 147.182 490.102 147.182ZM496.966 132.636C499.36 132.636 501.511 132.152 503.42 131.182C505.36 130.212 506.905 128.879 508.057 127.182C509.208 125.455 509.784 123.455 509.784 121.182V114.545C509.148 114.879 508.375 115.182 507.466 115.455C506.587 115.727 505.617 115.985 504.557 116.227C503.496 116.47 502.405 116.682 501.284 116.864C500.163 117.045 499.087 117.212 498.057 117.364C495.966 117.697 494.178 118.212 492.693 118.909C491.239 119.606 490.117 120.515 489.33 121.636C488.572 122.727 488.193 124.03 488.193 125.545C488.193 127.848 489.011 129.606 490.648 130.818C492.314 132.03 494.42 132.636 496.966 132.636ZM545.42 146V76.1818H567.011V88.9091H567.739C569.011 84.303 571.087 80.8788 573.966 78.6364C576.845 76.3636 580.193 75.2273 584.011 75.2273C585.042 75.2273 586.102 75.303 587.193 75.4545C588.284 75.5758 589.299 75.7727 590.239 76.0455V95.3636C589.178 95 587.784 94.7121 586.057 94.5C584.36 94.2879 582.845 94.1818 581.511 94.1818C578.875 94.1818 576.496 94.7727 574.375 95.9545C572.284 97.1061 570.633 98.7273 569.42 100.818C568.239 102.879 567.648 105.303 567.648 108.091V146H545.42ZM621.523 52.9091V146H599.295V52.9091H621.523ZM668.307 147.318C661.004 147.318 654.701 145.879 649.398 143C644.125 140.091 640.064 135.955 637.216 130.591C634.398 125.197 632.989 118.788 632.989 111.364C632.989 104.152 634.413 97.8485 637.261 92.4545C640.11 87.0303 644.125 82.8182 649.307 79.8182C654.489 76.7879 660.595 75.2727 667.625 75.2727C672.595 75.2727 677.14 76.0455 681.261 77.5909C685.383 79.1364 688.943 81.4242 691.943 84.4545C694.943 87.4848 697.277 91.2273 698.943 95.6818C700.61 100.106 701.443 105.182 701.443 110.909V116.455H640.761V103.545H680.761C680.731 101.182 680.17 99.0758 679.08 97.2273C677.989 95.3788 676.489 93.9394 674.58 92.9091C672.701 91.8485 670.534 91.3182 668.08 91.3182C665.595 91.3182 663.367 91.8788 661.398 93C659.428 94.0909 657.867 95.5909 656.716 97.5C655.564 99.3788 654.958 101.515 654.898 103.909V117.045C654.898 119.894 655.458 122.394 656.58 124.545C657.701 126.667 659.292 128.318 661.352 129.5C663.413 130.682 665.867 131.273 668.716 131.273C670.686 131.273 672.473 131 674.08 130.455C675.686 129.909 677.064 129.106 678.216 128.045C679.367 126.985 680.231 125.682 680.807 124.136L701.216 124.727C700.367 129.303 698.504 133.288 695.625 136.682C692.777 140.045 689.034 142.667 684.398 144.545C679.761 146.394 674.398 147.318 668.307 147.318ZM752.205 76.1818V92.5455H708.159V76.1818H752.205ZM717.386 59.4545H739.614V124.045C739.614 125.409 739.826 126.515 740.25 127.364C740.705 128.182 741.356 128.773 742.205 129.136C743.053 129.47 744.068 129.636 745.25 129.636C746.098 129.636 746.992 129.561 747.932 129.409C748.902 129.227 749.629 129.076 750.114 128.955L753.477 145C752.417 145.303 750.917 145.682 748.977 146.136C747.068 146.591 744.78 146.879 742.114 147C736.902 147.242 732.432 146.636 728.705 145.182C725.008 143.697 722.174 141.394 720.205 138.273C718.265 135.152 717.326 131.227 717.386 126.5V59.4545ZM802.955 76.1818V92.5455H758.909V76.1818H802.955ZM768.136 59.4545H790.364V124.045C790.364 125.409 790.576 126.515 791 127.364C791.455 128.182 792.106 128.773 792.955 129.136C793.803 129.47 794.818 129.636 796 129.636C796.848 129.636 797.742 129.561 798.682 129.409C799.652 129.227 800.379 129.076 800.864 128.955L804.227 145C803.167 145.303 801.667 145.682 799.727 146.136C797.818 146.591 795.53 146.879 792.864 147C787.652 147.242 783.182 146.636 779.455 145.182C775.758 143.697 772.924 141.394 770.955 138.273C769.015 135.152 768.076 131.227 768.136 126.5V59.4545ZM826.795 147.318C823.523 147.318 820.72 146.167 818.386 143.864C816.083 141.561 814.947 138.773 814.977 135.5C814.947 132.288 816.083 129.545 818.386 127.273C820.72 124.97 823.523 123.818 826.795 123.818C829.886 123.818 832.614 124.97 834.977 127.273C837.371 129.545 838.583 132.288 838.614 135.5C838.583 137.682 838.008 139.667 836.886 141.455C835.795 143.242 834.356 144.667 832.568 145.727C830.811 146.788 828.886 147.318 826.795 147.318ZM875.523 106.182V146H853.295V76.1818H874.432V89H875.205C876.75 84.7273 879.386 81.3788 883.114 78.9545C886.841 76.5 891.28 75.2727 896.432 75.2727C901.341 75.2727 905.598 76.3788 909.205 78.5909C912.841 80.7727 915.659 83.8333 917.659 87.7727C919.689 91.6818 920.689 96.2576 920.659 101.5V146H898.432V105.864C898.462 101.985 897.477 98.9545 895.477 96.7727C893.508 94.5909 890.765 93.5 887.25 93.5C884.917 93.5 882.856 94.0152 881.068 95.0455C879.311 96.0455 877.947 97.4848 876.977 99.3636C876.038 101.242 875.553 103.515 875.523 106.182ZM967.011 147.318C959.678 147.318 953.375 145.818 948.102 142.818C942.86 139.788 938.814 135.576 935.966 130.182C933.148 124.758 931.739 118.47 931.739 111.318C931.739 104.136 933.148 97.8485 935.966 92.4545C938.814 87.0303 942.86 82.8182 948.102 79.8182C953.375 76.7879 959.678 75.2727 967.011 75.2727C974.345 75.2727 980.633 76.7879 985.875 79.8182C991.148 82.8182 995.193 87.0303 998.011 92.4545C1000.86 97.8485 1002.28 104.136 1002.28 111.318C1002.28 118.47 1000.86 124.758 998.011 130.182C995.193 135.576 991.148 139.788 985.875 142.818C980.633 145.818 974.345 147.318 967.011 147.318ZM967.148 130.545C969.814 130.545 972.072 129.727 973.92 128.091C975.769 126.455 977.178 124.182 978.148 121.273C979.148 118.364 979.648 115 979.648 111.182C979.648 107.303 979.148 103.909 978.148 101C977.178 98.0909 975.769 95.8182 973.92 94.1818C972.072 92.5455 969.814 91.7273 967.148 91.7273C964.39 91.7273 962.057 92.5455 960.148 94.1818C958.269 95.8182 956.83 98.0909 955.83 101C954.86 103.909 954.375 107.303 954.375 111.182C954.375 115 954.86 118.364 955.83 121.273C956.83 124.182 958.269 126.455 960.148 128.091C962.057 129.727 964.39 130.545 967.148 130.545Z" fill="white"/>
</svg>
