<svg width="1284" height="1164" viewBox="0 0 1284 1164" fill="none" xmlns="http://www.w3.org/2000/svg">
<path d="M396.16 1158.67C386.64 1162.86 376.97 1163.53 367.03 1163.55L288.09 1163.71C253.81 1163.78 224.41 1142.3 214.49 1109.65L208.91 1091.3L183.14 1010.15L161.97 941.364L148.12 895.194C146.18 888.734 143.01 884.694 138.59 879.744C125.53 865.104 113.24 850.534 102.25 834.154C88.5801 813.784 75.7201 793.944 66.0201 771.344C42.6201 716.804 31.9501 665.084 35.5901 605.424C37.1801 579.414 42.0701 554.354 49.0201 529.344C50.0501 525.634 48.0701 523.804 45.7301 521.464C24.0801 499.774 8.29011 473.404 2.38011 442.924C-3.69989 411.584 2.08013 379.494 17.3001 351.794C22.2301 342.814 26.9201 334.644 34.6901 327.864C46.4301 317.624 64.3201 316.744 76.9201 326.204C90.3901 336.334 95.9101 354.914 88.9501 370.104C85.0501 378.614 80.2301 385.604 77.5601 394.534C71.1701 415.884 73.0801 428.404 83.3101 447.284C97.7401 422.004 118.82 393.834 138.31 373.434C149.56 361.654 160.2 350.344 172.7 339.624C245.08 277.524 333.05 235.694 425.51 213.024C470.63 201.964 542.28 191.754 588.07 191.714L612.25 191.694C652.32 191.664 691.69 193.954 731.01 202.364L790.93 215.174C796.98 216.464 802.53 218.814 808.76 218.924C817.16 212.064 825.33 204.544 835.39 200.394C837.93 199.344 838.16 197.744 839.3 196.524C869.31 178.064 901 165.024 935.55 156.764C946.48 154.154 956.9 152.664 968.12 151.214C989.25 148.494 1011.82 145.544 1028.78 160.494C1040.7 170.994 1046.32 186.464 1046.16 202.114C1046.07 211.284 1044.58 219.284 1042.98 228.234L1025.5 325.814C1032.16 330.324 1037.05 336.044 1043.31 340.954C1056.67 351.424 1068.72 362.464 1079.98 375.204C1087.52 383.734 1094.61 391.544 1101.7 400.524C1117.61 420.664 1131.78 441.414 1142.6 464.784C1145.37 470.774 1148.59 475.794 1151.81 481.784L1179.3 489.884L1232.68 504.384C1237.32 505.644 1241.23 507.604 1245.34 509.644C1267.3 520.544 1283.74 548.174 1283.66 572.284L1283.16 712.184C1283.09 732.124 1271.17 751.084 1257.32 764.114C1246.52 774.264 1233.55 778.754 1220.51 784.624L1167.31 808.604C1156.09 813.664 1145.09 818.134 1133.81 822.704C1127.34 825.324 1123.53 829.054 1119.62 834.724C1088.44 880.024 1055.2 909.864 1013.36 944.354C1008.69 948.204 1005.52 953.004 1003.99 958.794L991.22 1007.2L971.55 1080.47C969.38 1088.54 966.72 1095.84 964.97 1103.94C960.1 1126.49 946.64 1144.26 926.51 1155.75C915.9 1161.81 903.66 1163.41 891.01 1163.42L812.14 1163.53C782.39 1163.57 756.61 1148.67 742.16 1122.97L707.88 1062.02C706.64 1059.81 705.54 1055.73 701.96 1056.14C669.86 1059.85 638.51 1061.76 606.08 1061.23C575.89 1061.7 546.99 1060.18 517.16 1056.2L474.8 1050.55L431.21 1130.37C423.84 1143.86 410.25 1152.4 396.15 1158.62L396.16 1158.67ZM686.95 395.484L734.78 405.564C744.25 407.564 755.53 401.954 761.85 395.434C771.1 385.904 774.45 373.544 770.72 360.454C767.71 349.914 759.18 340.524 747.19 337.034C732.64 332.804 718.62 329.684 703.55 326.704C667.58 319.584 604.66 313.914 569.07 317.644L531.3 321.604C512.89 323.534 495.51 326.364 477.44 330.474C460.84 334.254 407.32 345.694 397.12 356.374C383.1 371.044 380.99 390.494 393.31 405.184C400.65 413.944 411.97 419.134 424.09 418.124C431.78 417.484 437.88 413.784 445.23 411.434C523.09 386.604 606.24 378.464 686.94 395.474L686.95 395.484ZM947.69 562.004C962.55 564.684 975.99 561.064 987.5 552.474C1004.11 540.084 1009.56 519.044 1003.94 499.324C996.1 471.784 966.78 456.584 940.23 467.204C926.15 472.834 916.61 482.674 911.35 496.614C900.73 524.794 917.05 556.474 947.68 562.004H947.69Z" fill="#FF6B35"/>
<path d="M597.847 78.8377C541.087 58.4977 478.726 96.8978 468.616 155.568C441.566 159.378 420.587 165.588 394.467 170.608C391.287 143.658 404.897 105.428 419.097 82.8078C438.677 51.6178 468.316 25.7677 502.636 12.1877C552.026 -7.35227 605.177 -3.02225 651.197 22.4877C698.517 50.7177 733.206 101.458 736.046 158.218C711.866 153.768 688.927 150.388 665.077 148.568C662.277 148.358 660.376 147.268 659.896 144.388C654.106 128.198 646.126 112.978 633.446 101.038C623.156 91.3377 611.127 83.5977 597.847 78.8477V78.8377Z" fill="#FF6B35"/>
</svg>
