<svg width="2048" height="2048" viewBox="0 0 2048 2048" fill="none" xmlns="http://www.w3.org/2000/svg">
<rect width="2048" height="2048" rx="16" fill="#0A0E1A"/>
<path d="M778.16 1600.67C768.64 1604.86 758.97 1605.53 749.03 1605.55L670.09 1605.71C635.81 1605.78 606.41 1584.3 596.49 1551.65L590.91 1533.3L565.14 1452.15L543.97 1383.36L530.12 1337.19C528.18 1330.73 525.01 1326.69 520.59 1321.74C507.53 1307.1 495.24 1292.53 484.25 1276.15C470.58 1255.78 457.72 1235.94 448.02 1213.34C424.62 1158.8 413.95 1107.08 417.59 1047.42C419.18 1021.41 424.07 996.354 431.02 971.344C432.05 967.634 430.07 965.804 427.73 963.464C406.08 941.774 390.29 915.404 384.38 884.924C378.3 853.584 384.08 821.494 399.3 793.794C404.23 784.814 408.92 776.644 416.69 769.864C428.43 759.624 446.32 758.744 458.92 768.204C472.39 778.334 477.91 796.914 470.95 812.104C467.05 820.614 462.23 827.604 459.56 836.534C453.17 857.884 455.08 870.404 465.31 889.284C479.74 864.004 500.82 835.834 520.31 815.434C531.56 803.654 542.2 792.344 554.7 781.624C627.08 719.524 715.05 677.694 807.51 655.024C852.63 643.964 924.28 633.754 970.07 633.714L994.25 633.694C1034.32 633.664 1073.69 635.954 1113.01 644.364L1172.93 657.174C1178.98 658.464 1184.53 660.814 1190.76 660.924C1199.16 654.064 1207.33 646.544 1217.39 642.394C1219.93 641.344 1220.16 639.744 1221.3 638.524C1251.31 620.064 1283 607.024 1317.55 598.764C1328.48 596.154 1338.9 594.664 1350.12 593.214C1371.25 590.494 1393.82 587.544 1410.78 602.494C1422.7 612.994 1428.32 628.464 1428.16 644.114C1428.07 653.284 1426.58 661.284 1424.98 670.234L1407.5 767.814C1414.16 772.324 1419.05 778.044 1425.31 782.954C1438.67 793.424 1450.72 804.464 1461.98 817.204C1469.52 825.734 1476.61 833.544 1483.7 842.524C1499.61 862.664 1513.78 883.414 1524.6 906.784C1527.37 912.774 1530.59 917.794 1533.81 923.784L1561.3 931.884L1614.68 946.384C1619.32 947.644 1623.23 949.604 1627.34 951.644C1649.3 962.544 1665.74 990.174 1665.66 1014.28L1665.16 1154.18C1665.09 1174.12 1653.17 1193.08 1639.32 1206.11C1628.52 1216.26 1615.55 1220.75 1602.51 1226.62L1549.31 1250.6C1538.09 1255.66 1527.09 1260.13 1515.81 1264.7C1509.34 1267.32 1505.53 1271.05 1501.62 1276.72C1470.44 1322.02 1437.2 1351.86 1395.36 1386.35C1390.69 1390.2 1387.52 1395 1385.99 1400.79L1373.22 1449.2L1353.55 1522.47C1351.38 1530.54 1348.72 1537.84 1346.97 1545.94C1342.1 1568.49 1328.64 1586.26 1308.51 1597.75C1297.9 1603.81 1285.66 1605.41 1273.01 1605.42L1194.14 1605.53C1164.39 1605.57 1138.61 1590.67 1124.16 1564.97L1089.88 1504.02C1088.64 1501.81 1087.54 1497.73 1083.96 1498.14C1051.86 1501.85 1020.51 1503.76 988.08 1503.23C957.89 1503.7 928.99 1502.18 899.16 1498.2L856.8 1492.55L813.21 1572.37C805.84 1585.86 792.25 1594.4 778.15 1600.62L778.16 1600.67ZM1068.95 837.484L1116.78 847.564C1126.25 849.564 1137.53 843.954 1143.85 837.434C1153.1 827.904 1156.45 815.544 1152.72 802.454C1149.71 791.914 1141.18 782.524 1129.19 779.034C1114.64 774.804 1100.62 771.684 1085.55 768.704C1049.58 761.584 986.66 755.914 951.07 759.644L913.3 763.604C894.89 765.534 877.51 768.364 859.44 772.474C842.84 776.254 789.32 787.694 779.12 798.374C765.1 813.044 762.99 832.494 775.31 847.184C782.65 855.944 793.97 861.134 806.09 860.124C813.78 859.484 819.88 855.784 827.23 853.434C905.09 828.604 988.24 820.464 1068.94 837.474L1068.95 837.484ZM1329.69 1004C1344.55 1006.68 1357.99 1003.06 1369.5 994.474C1386.11 982.084 1391.56 961.044 1385.94 941.324C1378.1 913.784 1348.78 898.584 1322.23 909.204C1308.15 914.834 1298.61 924.674 1293.35 938.614C1282.73 966.794 1299.05 998.474 1329.68 1004H1329.69Z" fill="#FC5011"/>
<path d="M979.847 520.838C923.087 500.498 860.726 538.898 850.616 597.568C823.566 601.378 802.587 607.588 776.467 612.608C773.287 585.658 786.897 547.428 801.097 524.808C820.677 493.618 850.316 467.768 884.636 454.188C934.026 434.648 987.177 438.978 1033.2 464.488C1080.52 492.718 1115.21 543.458 1118.05 600.218C1093.87 595.768 1070.93 592.388 1047.08 590.568C1044.28 590.358 1042.38 589.268 1041.9 586.388C1036.11 570.198 1028.13 554.978 1015.45 543.038C1005.16 533.338 993.127 525.598 979.847 520.848V520.838Z" fill="#FC5011"/>
</svg>
